<?xml version="1.0" standalone="no"?>
<!DOCTYPE svg PUBLIC "-//W3C//DTD SVG 20010904//EN"
 "http://www.w3.org/TR/2001/REC-SVG-20010904/DTD/svg10.dtd">
<svg version="1.0" xmlns="http://www.w3.org/2000/svg"
 width="256.000000pt" height="256.000000pt" viewBox="0 0 256.000000 256.000000"
 preserveAspectRatio="xMidYMid meet">

<g transform="translate(0.000000,256.000000) scale(0.100000,-0.100000)"
fill="#000000" stroke="none">
<path d="M260 2386 c-126 -27 -221 -120 -249 -247 -12 -52 63 -1784 79 -1842
15 -50 72 -113 118 -129 30 -10 236 -13 1017 -13 l980 0 41 22 c54 29 88 70
102 124 7 24 57 316 113 649 69 415 99 618 95 648 -14 106 -100 196 -203 210
-44 7 -49 11 -68 49 -33 69 -90 129 -152 160 l-58 28 -488 5 -488 5 -19 25
c-10 14 -22 40 -25 59 -11 56 -50 124 -98 168 -57 53 -88 69 -162 82 -78 15
-464 13 -535 -3z m542 -118 c59 -17 112 -82 137 -165 22 -74 68 -130 126 -155
23 -9 150 -14 510 -18 461 -5 481 -6 515 -25 37 -22 87 -87 92 -120 3 -20 -4
-20 -847 -25 -941 -6 -880 -1 -939 -70 -34 -41 -35 -46 -107 -488 -54 -330
-65 -385 -82 -393 -10 -6 -20 -9 -22 -7 -4 4 -54 1099 -57 1233 -1 75 2 97 20
132 24 46 74 89 119 103 44 13 489 12 535 -2z m1577 -592 l22 -20 -693 -693
-693 -693 -363 0 c-396 0 -415 2 -428 56 -4 15 36 286 98 660 96 581 107 636
129 660 51 56 11 54 995 51 888 -2 912 -3 933 -21z m55 -84 c3 -15 -41 -305
-99 -651 -89 -536 -107 -627 -125 -645 -20 -21 -29 -21 -567 -24 -301 -1 -554
0 -562 3 -10 4 194 215 659 680 371 371 677 672 681 669 4 -2 10 -17 13 -32z"/>
</g>
</svg>
