<?xml version="1.0" encoding="UTF-8"?>
<!DOCTYPE svg PUBLIC "-//W3C//DTD SVG 1.1//EN" "http://www.w3.org/Graphics/SVG/1.1/DTD/svg11.dtd">
<svg xmlns="http://www.w3.org/2000/svg" version="1.1" width="180px" height="180px" style="shape-rendering:geometricPrecision; text-rendering:geometricPrecision; image-rendering:optimizeQuality; fill-rule:evenodd; clip-rule:evenodd" xmlns:xlink="http://www.w3.org/1999/xlink">
<g><path style="opacity:1" fill="#0377bf" d="M 133.5,30.5 C 128.438,31.3689 128.438,32.8689 133.5,35C 132.289,35.8928 132.289,36.7261 133.5,37.5C 135.382,37.3575 137.382,37.8575 139.5,39C 137.009,39.6259 137.009,40.4593 139.5,41.5C 138.36,43.0778 137.86,44.7445 138,46.5C 139.635,45.1514 141.135,45.3181 142.5,47C 140.375,47.8161 138.541,48.9827 137,50.5C 134.118,49.7508 131.451,49.7508 129,50.5C 127.887,51.7604 127.72,52.927 128.5,54C 123.554,53.9474 122.887,55.614 126.5,59C 127.448,59.4828 128.448,59.6495 129.5,59.5C 129.231,61.4286 129.731,63.0953 131,64.5C 131.617,63.5509 131.451,62.7175 130.5,62C 135.195,61.7336 135.862,63.4002 132.5,67C 133.308,67.3076 133.975,67.8076 134.5,68.5C 135.195,71.2802 136.195,73.9469 137.5,76.5C 136.194,77.9122 135.36,79.5789 135,81.5C 133.933,82.1905 132.766,82.6905 131.5,83C 131.833,83.3333 132.167,83.6667 132.5,84C 130.385,84.5573 128.385,85.3906 126.5,86.5C 123.5,85.1667 120.5,83.8333 117.5,82.5C 115.476,84.3581 113.309,86.0248 111,87.5C 109.951,86.4829 108.784,86.3162 107.5,87C 107.5,88.3333 107.5,89.6667 107.5,91C 110.401,91.8751 113.068,93.0418 115.5,94.5C 109.153,93.2124 102.82,93.2124 96.5,94.5C 94.8572,88.4696 92.5239,82.6362 89.5,77C 82.1742,76.5003 74.8409,76.3337 67.5,76.5C 70.5116,41.2949 89.345,24.6282 124,26.5C 127.291,27.7568 130.458,29.0901 133.5,30.5 Z"/></g>
<g><path style="opacity:1" fill="#0e070c" d="M 116.5,68.5 C 120.161,68.3501 121.161,69.8501 119.5,73C 118.207,73.49 116.873,73.6567 115.5,73.5C 115.366,71.7085 115.699,70.0418 116.5,68.5 Z"/></g>
<g><path style="opacity:1" fill="#110e15" d="M 92.5,68.5 C 95.5242,68.3642 97.0242,69.6975 97,72.5C 92.4155,74.4126 90.9155,73.0793 92.5,68.5 Z"/></g>
<g><path style="opacity:1" fill="#ea9e22" d="M 102.5,76.5 C 106.265,76.6757 108.265,78.6757 108.5,82.5C 105.428,82.8174 102.428,82.4841 99.5,81.5C 100.26,79.6396 101.26,77.973 102.5,76.5 Z"/></g>
<g><path style="opacity:1" fill="#4b4f53" d="M 97.5,103.5 C 99.4575,108.64 101.124,113.973 102.5,119.5C 101.927,122.659 101.76,125.992 102,129.5C 101.085,128.672 100.419,127.672 100,126.5C 96.2244,111.181 92.0577,96.014 87.5,81C 66.1589,80.8331 44.8255,80.3331 23.5,79.5C 45.4924,78.3336 67.4924,78.1669 89.5,79C 91.7963,87.3764 94.463,95.5431 97.5,103.5 Z"/></g>
<g><path style="opacity:1" fill="#25292e" d="M 67.5,76.5 C 74.8409,76.3337 82.1742,76.5003 89.5,77C 92.5239,82.6362 94.8572,88.4696 96.5,94.5C 96.7038,97.5176 97.0371,100.518 97.5,103.5C 94.463,95.5431 91.7963,87.3764 89.5,79C 67.4924,78.1669 45.4924,78.3336 23.5,79.5C 44.8255,80.3331 66.1589,80.8331 87.5,81C 92.0577,96.014 96.2244,111.181 100,126.5C 100.419,127.672 101.085,128.672 102,129.5C 101.76,125.992 101.927,122.659 102.5,119.5C 102.5,120.5 102.5,121.5 102.5,122.5C 105.5,122.5 108.5,122.5 111.5,122.5C 111.611,123.117 111.944,123.617 112.5,124C 120.861,124.705 129.194,124.538 137.5,123.5C 137.423,124.75 136.756,125.583 135.5,126C 126.268,128.975 116.934,131.642 107.5,134C 84.1667,134.667 60.8333,134.667 37.5,134C 35.5494,132.266 34.5494,130.099 34.5,127.5C 34.0679,126.29 33.4013,125.29 32.5,124.5C 28.3295,108.841 24.4961,93.174 21,77.5C 36.4221,76.509 51.9221,76.1756 67.5,76.5 Z"/></g>
<g><path style="opacity:1" fill="#f4f6f7" d="M 115.5,94.5 C 118.796,96.8208 122.129,99.1542 125.5,101.5C 120.978,105.365 116.478,109.365 112,113.5C 110.426,116.492 110.259,119.492 111.5,122.5C 108.5,122.5 105.5,122.5 102.5,122.5C 102.5,121.5 102.5,120.5 102.5,119.5C 101.124,113.973 99.4575,108.64 97.5,103.5C 97.0371,100.518 96.7038,97.5176 96.5,94.5C 102.82,93.2124 109.153,93.2124 115.5,94.5 Z"/></g>
<g><path style="opacity:1" fill="#282d32" d="M 162.5,88.5 C 166.749,88.8702 169.916,90.8702 172,94.5C 174.014,102.363 174.848,110.363 174.5,118.5C 170.936,119.423 167.269,119.756 163.5,119.5C 162.629,109.194 162.296,98.8605 162.5,88.5 Z"/></g>
<g><path style="opacity:1" fill="#0278bf" d="M 133.5,30.5 C 143.093,34.2582 149.926,40.9249 154,50.5C 158.809,62.7097 161.642,75.3763 162.5,88.5C 162.296,98.8605 162.629,109.194 163.5,119.5C 158.167,119.5 152.833,119.5 147.5,119.5C 150.074,118.119 152.574,116.452 155,114.5C 155.749,113.365 155.583,112.365 154.5,111.5C 142.38,120.892 128.713,124.225 113.5,121.5C 113.338,119.473 113.505,117.473 114,115.5C 120,110.167 126,104.833 132,99.5C 132.591,98.5165 132.257,97.8499 131,97.5C 129.359,99.1394 127.526,100.473 125.5,101.5C 122.129,99.1542 118.796,96.8208 115.5,94.5C 113.068,93.0418 110.401,91.8751 107.5,91C 107.5,89.6667 107.5,88.3333 107.5,87C 108.784,86.3162 109.951,86.4829 111,87.5C 113.309,86.0248 115.476,84.3581 117.5,82.5C 120.5,83.8333 123.5,85.1667 126.5,86.5C 128.385,85.3906 130.385,84.5573 132.5,84C 132.167,83.6667 131.833,83.3333 131.5,83C 132.766,82.6905 133.933,82.1905 135,81.5C 135.36,79.5789 136.194,77.9122 137.5,76.5C 136.195,73.9469 135.195,71.2802 134.5,68.5C 133.975,67.8076 133.308,67.3076 132.5,67C 135.862,63.4002 135.195,61.7336 130.5,62C 131.451,62.7175 131.617,63.5509 131,64.5C 129.731,63.0953 129.231,61.4286 129.5,59.5C 128.448,59.6495 127.448,59.4828 126.5,59C 122.887,55.614 123.554,53.9474 128.5,54C 127.72,52.927 127.887,51.7604 129,50.5C 131.451,49.7508 134.118,49.7508 137,50.5C 138.541,48.9827 140.375,47.8161 142.5,47C 141.135,45.3181 139.635,45.1514 138,46.5C 137.86,44.7445 138.36,43.0778 139.5,41.5C 137.009,40.4593 137.009,39.6259 139.5,39C 137.382,37.8575 135.382,37.3575 133.5,37.5C 132.289,36.7261 132.289,35.8928 133.5,35C 128.438,32.8689 128.438,31.3689 133.5,30.5 Z"/></g>
<g><path style="opacity:1" fill="#4d5154" d="M 56.5,103.5 C 58.8568,103.337 61.1902,103.503 63.5,104C 66.3411,107.836 65.3411,110.336 60.5,111.5C 54.8652,110.605 53.5319,107.938 56.5,103.5 Z"/></g>
<g><path style="opacity:1" fill="#0b588d" d="M 147.5,119.5 C 144.743,120.512 142.076,121.512 139.5,122.5C 138.508,122.328 137.842,122.662 137.5,123.5C 129.194,124.538 120.861,124.705 112.5,124C 111.944,123.617 111.611,123.117 111.5,122.5C 110.259,119.492 110.426,116.492 112,113.5C 116.478,109.365 120.978,105.365 125.5,101.5C 127.526,100.473 129.359,99.1394 131,97.5C 132.257,97.8499 132.591,98.5165 132,99.5C 126,104.833 120,110.167 114,115.5C 113.505,117.473 113.338,119.473 113.5,121.5C 128.713,124.225 142.38,120.892 154.5,111.5C 155.583,112.365 155.749,113.365 155,114.5C 152.574,116.452 150.074,118.119 147.5,119.5 Z"/></g>
<g><path style="opacity:1" fill="#fcfcfc" d="M 139.5,122.5 C 152.167,122.5 164.833,122.5 177.5,122.5C 177.82,125.898 177.487,129.232 176.5,132.5C 160.581,137.646 144.581,142.479 128.5,147C 85.429,147.827 42.429,147.661 -0.5,146.5C -0.5,144.167 -0.5,141.833 -0.5,139.5C 10.6475,134.339 22.3141,130.339 34.5,127.5C 34.5494,130.099 35.5494,132.266 37.5,134C 60.8333,134.667 84.1667,134.667 107.5,134C 116.934,131.642 126.268,128.975 135.5,126C 136.756,125.583 137.423,124.75 137.5,123.5C 137.842,122.662 138.508,122.328 139.5,122.5 Z"/></g>
<g><path style="opacity:1" fill="#aeb7c0" d="M 32.5,124.5 C 33.4013,125.29 34.0679,126.29 34.5,127.5C 22.3141,130.339 10.6475,134.339 -0.5,139.5C -0.5,137.833 -0.5,136.167 -0.5,134.5C 10.4333,131.016 21.4333,127.682 32.5,124.5 Z"/></g>
<g><path style="opacity:1" fill="#e2e5e8" d="M 172.5,123.5 C 175.731,124.098 176.064,125.264 173.5,127C 157.909,131.863 142.242,136.53 126.5,141C 85.8333,141.667 45.1667,141.667 4.5,141C 3.16667,140 3.16667,139 4.5,138C 45.8333,137.667 87.1667,137.333 128.5,137C 143.518,133.306 158.185,128.806 172.5,123.5 Z"/></g>
<g><path style="opacity:1" fill="#b9c3cb" d="M 174.5,118.5 C 176.216,118.629 177.883,118.962 179.5,119.5C 179.5,124.833 179.5,130.167 179.5,135.5C 162.498,140.555 145.498,145.722 128.5,151C 85.5013,151.5 42.5013,151.667 -0.5,151.5C -0.5,149.833 -0.5,148.167 -0.5,146.5C 42.429,147.661 85.429,147.827 128.5,147C 144.581,142.479 160.581,137.646 176.5,132.5C 177.487,129.232 177.82,125.898 177.5,122.5C 164.833,122.5 152.167,122.5 139.5,122.5C 142.076,121.512 144.743,120.512 147.5,119.5C 152.833,119.5 158.167,119.5 163.5,119.5C 167.269,119.756 170.936,119.423 174.5,118.5 Z"/></g>
</svg>
